{
 "cells": [
  {
   "cell_type": "markdown",
   "metadata": {},
   "source": [
    "##### `This file reduces the size of videos for the sake of annotation. All videos will be saved into a folder called \"compressed video\".`\n",
    "\n",
    "Last updated on Sept. 24th, 2023."
   ]
  },
  {
   "cell_type": "code",
   "execution_count": 3,
   "metadata": {},
   "outputs": [],
   "source": [
    "import os\n",
    "import re\n",
    "from string import Template"
   ]
  },
  {
   "cell_type": "code",
   "execution_count": 4,
   "metadata": {},
   "outputs": [
    {
     "name": "stdout",
     "output_type": "stream",
     "text": [
      "s01e04\n",
      "s01e04.mp4 s01e04 ffmpeg -i 'video/Series 1'/'s01e04.mp4'  -vcodec libx264 -crf 30 -ar 16000 -ac 1 -vf scale=426:240 \"compressed video\"/\"Series 1\"/s01e04.mp4\n"
     ]
    },
    {
     "name": "stderr",
     "output_type": "stream",
     "text": [
      "ffmpeg version 5.0.1 Copyright (c) 2000-2022 the FFmpeg developers\n",
      "  built with Apple clang version 13.0.0 (clang-1300.0.29.30)\n",
      "  configuration: --prefix=/opt/homebrew/Cellar/ffmpeg/5.0.1_2 --enable-shared --enable-pthreads --enable-version3 --cc=clang --host-cflags= --host-ldflags= --enable-ffplay --enable-gnutls --enable-gpl --enable-libaom --enable-libbluray --enable-libdav1d --enable-libmp3lame --enable-libopus --enable-librav1e --enable-librist --enable-librubberband --enable-libsnappy --enable-libsrt --enable-libtesseract --enable-libtheora --enable-libvidstab --enable-libvmaf --enable-libvorbis --enable-libvpx --enable-libwebp --enable-libx264 --enable-libx265 --enable-libxml2 --enable-libxvid --enable-lzma --enable-libfontconfig --enable-libfreetype --enable-frei0r --enable-libass --enable-libopencore-amrnb --enable-libopencore-amrwb --enable-libopenjpeg --enable-libspeex --enable-libsoxr --enable-libzmq --enable-libzimg --disable-libjack --disable-indev=jack --enable-videotoolbox --enable-neon\n",
      "  libavutil      57. 17.100 / 57. 17.100\n",
      "  libavcodec     59. 18.100 / 59. 18.100\n",
      "  libavformat    59. 16.100 / 59. 16.100\n",
      "  libavdevice    59.  4.100 / 59.  4.100\n",
      "  libavfilter     8. 24.100 /  8. 24.100\n",
      "  libswscale      6.  4.100 /  6.  4.100\n",
      "  libswresample   4.  3.100 /  4.  3.100\n",
      "  libpostproc    56.  3.100 / 56.  3.100\n",
      "Input #0, mov,mp4,m4a,3gp,3g2,mj2, from 'video/Series 1/s01e04.mp4':\n",
      "  Metadata:\n",
      "    major_brand     : mp42\n",
      "    minor_version   : 0\n",
      "    compatible_brands: mp42mp41\n",
      "    creation_time   : 2021-02-28T11:42:51.000000Z\n",
      "  Duration: 00:29:11.85, start: 0.000000, bitrate: 1127 kb/s\n",
      "  Stream #0:0[0x1](eng): Video: h264 (Main) (avc1 / 0x31637661), yuv420p(tv, smpte170m, progressive), 672x368, 998 kb/s, 25 fps, 25 tbr, 25k tbn (default)\n",
      "    Metadata:\n",
      "      creation_time   : 2021-02-28T11:42:51.000000Z\n",
      "      handler_name    : ?Mainconcept Video Media Handler\n",
      "      vendor_id       : [0][0][0][0]\n",
      "      encoder         : AVC Coding\n",
      "  Stream #0:1[0x2](eng): Audio: aac (LC) (mp4a / 0x6134706D), 48000 Hz, stereo, fltp, 125 kb/s (default)\n",
      "    Metadata:\n",
      "      creation_time   : 2021-02-28T11:42:51.000000Z\n",
      "      handler_name    : #Mainconcept MP4 Sound Media Handler\n",
      "      vendor_id       : [0][0][0][0]\n",
      "Stream mapping:\n",
      "  Stream #0:0 -> #0:0 (h264 (native) -> h264 (libx264))\n",
      "  Stream #0:1 -> #0:1 (aac (native) -> aac (native))\n",
      "Press [q] to stop, [?] for help\n",
      "[libx264 @ 0x126e1bd90] using cpu capabilities: ARMv8 NEON\n",
      "[libx264 @ 0x126e1bd90] profile High, level 2.1, 4:2:0, 8-bit\n",
      "[libx264 @ 0x126e1bd90] 264 - core 164 r3095 baee400 - H.264/MPEG-4 AVC codec - Copyleft 2003-2022 - http://www.videolan.org/x264.html - options: cabac=1 ref=3 deblock=1:0:0 analyse=0x3:0x113 me=hex subme=7 psy=1 psy_rd=1.00:0.00 mixed_ref=1 me_range=16 chroma_me=1 trellis=1 8x8dct=1 cqm=0 deadzone=21,11 fast_pskip=1 chroma_qp_offset=-2 threads=7 lookahead_threads=1 sliced_threads=0 nr=0 decimate=1 interlaced=0 bluray_compat=0 constrained_intra=0 bframes=3 b_pyramid=2 b_adapt=1 b_bias=0 direct=1 weightb=1 open_gop=0 weightp=2 keyint=250 keyint_min=25 scenecut=40 intra_refresh=0 rc_lookahead=40 rc=crf mbtree=1 crf=30.0 qcomp=0.60 qpmin=0 qpmax=69 qpstep=4 ip_ratio=1.40 aq=1:1.00\n",
      "Output #0, mp4, to 'compressed video/Series 1/s01e04.mp4':\n",
      "  Metadata:\n",
      "    major_brand     : mp42\n",
      "    minor_version   : 0\n",
      "    compatible_brands: mp42mp41\n",
      "    encoder         : Lavf59.16.100\n",
      "  Stream #0:0(eng): Video: h264 (avc1 / 0x31637661), yuv420p(tv, smpte170m, progressive), 426x240, q=2-31, 25 fps, 12800 tbn (default)\n",
      "    Metadata:\n",
      "      creation_time   : 2021-02-28T11:42:51.000000Z\n",
      "      handler_name    : ?Mainconcept Video Media Handler\n",
      "      vendor_id       : [0][0][0][0]\n",
      "      encoder         : Lavc59.18.100 libx264\n",
      "    Side data:\n",
      "      cpb: bitrate max/min/avg: 0/0/0 buffer size: 0 vbv_delay: N/A\n",
      "  Stream #0:1(eng): Audio: aac (LC) (mp4a / 0x6134706D), 16000 Hz, mono, fltp, 69 kb/s (default)\n",
      "    Metadata:\n",
      "      creation_time   : 2021-02-28T11:42:51.000000Z\n",
      "      handler_name    : #Mainconcept MP4 Sound Media Handler\n",
      "      vendor_id       : [0][0][0][0]\n",
      "      encoder         : Lavc59.18.100 aac\n",
      "frame=43795 fps=1228 q=-1.0 Lsize=   39493kB time=00:29:11.80 bitrate= 184.7kbits/s speed=49.1x    \n",
      "video:22220kB audio:16191kB subtitle:0kB other streams:0kB global headers:0kB muxing overhead: 2.817230%\n",
      "[libx264 @ 0x126e1bd90] frame I:743   Avg QP:25.58  size:  6645\n",
      "[libx264 @ 0x126e1bd90] frame P:12633 Avg QP:30.68  size:   944\n",
      "[libx264 @ 0x126e1bd90] frame B:30419 Avg QP:37.19  size:   193\n",
      "[libx264 @ 0x126e1bd90] consecutive B-frames:  5.1%  5.3%  4.7% 84.9%\n",
      "[libx264 @ 0x126e1bd90] mb I  I16..4: 24.7% 48.5% 26.8%\n",
      "[libx264 @ 0x126e1bd90] mb P  I16..4:  2.6%  3.0%  0.5%  P16..4: 28.9%  8.4%  3.8%  0.0%  0.0%    skip:52.8%\n",
      "[libx264 @ 0x126e1bd90] mb B  I16..4:  0.1%  0.2%  0.0%  B16..8: 20.1%  1.5%  0.2%  direct: 0.4%  skip:77.6%  L0:37.3% L1:59.9% BI: 2.8%\n",
      "[libx264 @ 0x126e1bd90] 8x8 transform intra:49.6% inter:75.0%\n",
      "[libx264 @ 0x126e1bd90] coded y,uvDC,uvAC intra: 37.9% 72.1% 40.8% inter: 3.3% 6.1% 1.1%\n",
      "[libx264 @ 0x126e1bd90] i16 v,h,dc,p: 42% 24%  9% 25%\n",
      "[libx264 @ 0x126e1bd90] i8 v,h,dc,ddl,ddr,vr,hd,vl,hu: 23% 15% 32%  4%  5%  6%  5%  6%  5%\n",
      "[libx264 @ 0x126e1bd90] i4 v,h,dc,ddl,ddr,vr,hd,vl,hu: 29% 23% 14%  5%  6%  8%  5%  6%  4%\n",
      "[libx264 @ 0x126e1bd90] i8c dc,h,v,p: 41% 21% 28%  9%\n",
      "[libx264 @ 0x126e1bd90] Weighted P-Frames: Y:2.0% UV:1.2%\n",
      "[libx264 @ 0x126e1bd90] ref P L0: 67.9% 13.8% 12.7%  5.4%  0.1%\n",
      "[libx264 @ 0x126e1bd90] ref B L0: 91.1%  6.8%  2.1%\n",
      "[libx264 @ 0x126e1bd90] ref B L1: 97.1%  2.9%\n",
      "[libx264 @ 0x126e1bd90] kb/s:103.90\n",
      "[aac @ 0x126e1d2a0] Qavg: 2782.938\n",
      "ffmpeg version 5.0.1 Copyright (c) 2000-2022 the FFmpeg developers\n",
      "  built with Apple clang version 13.0.0 (clang-1300.0.29.30)\n",
      "  configuration: --prefix=/opt/homebrew/Cellar/ffmpeg/5.0.1_2 --enable-shared --enable-pthreads --enable-version3 --cc=clang --host-cflags= --host-ldflags= --enable-ffplay --enable-gnutls --enable-gpl --enable-libaom --enable-libbluray --enable-libdav1d --enable-libmp3lame --enable-libopus --enable-librav1e --enable-librist --enable-librubberband --enable-libsnappy --enable-libsrt --enable-libtesseract --enable-libtheora --enable-libvidstab --enable-libvmaf --enable-libvorbis --enable-libvpx --enable-libwebp --enable-libx264 --enable-libx265 --enable-libxml2 --enable-libxvid --enable-lzma --enable-libfontconfig --enable-libfreetype --enable-frei0r --enable-libass --enable-libopencore-amrnb --enable-libopencore-amrwb --enable-libopenjpeg --enable-libspeex --enable-libsoxr --enable-libzmq --enable-libzimg --disable-libjack --disable-indev=jack --enable-videotoolbox --enable-neon\n",
      "  libavutil      57. 17.100 / 57. 17.100\n",
      "  libavcodec     59. 18.100 / 59. 18.100\n",
      "  libavformat    59. 16.100 / 59. 16.100\n",
      "  libavdevice    59.  4.100 / 59.  4.100\n",
      "  libavfilter     8. 24.100 /  8. 24.100\n",
      "  libswscale      6.  4.100 /  6.  4.100\n",
      "  libswresample   4.  3.100 /  4.  3.100\n",
      "  libpostproc    56.  3.100 / 56.  3.100\n",
      "Input #0, mov,mp4,m4a,3gp,3g2,mj2, from 'video/Series 1/s01e05.mp4':\n",
      "  Metadata:\n",
      "    major_brand     : mp42\n",
      "    minor_version   : 0\n",
      "    compatible_brands: mp42mp41\n",
      "    creation_time   : 2021-02-28T11:44:37.000000Z\n",
      "  Duration: 00:29:08.39, start: 0.000000, bitrate: 1127 kb/s\n",
      "  Stream #0:0[0x1](eng): Video: h264 (Main) (avc1 / 0x31637661), yuv420p(tv, smpte170m, progressive), 640x352, 998 kb/s, 25 fps, 25 tbr, 25k tbn (default)\n",
      "    Metadata:\n",
      "      creation_time   : 2021-02-28T11:44:38.000000Z\n",
      "      handler_name    : ?Mainconcept Video Media Handler\n",
      "      vendor_id       : [0][0][0][0]\n",
      "      encoder         : AVC Coding\n",
      "  Stream #0:1[0x2](eng): Audio: aac (LC) (mp4a / 0x6134706D), 48000 Hz, stereo, fltp, 125 kb/s (default)\n",
      "    Metadata:\n",
      "      creation_time   : 2021-02-28T11:44:38.000000Z\n",
      "      handler_name    : #Mainconcept MP4 Sound Media Handler\n",
      "      vendor_id       : [0][0][0][0]\n",
      "Stream mapping:\n",
      "  Stream #0:0 -> #0:0 (h264 (native) -> h264 (libx264))\n",
      "  Stream #0:1 -> #0:1 (aac (native) -> aac (native))\n",
      "Press [q] to stop, [?] for help\n",
      "[libx264 @ 0x152010070] using cpu capabilities: ARMv8 NEON\n",
      "[libx264 @ 0x152010070] profile High, level 2.1, 4:2:0, 8-bit\n",
      "[libx264 @ 0x152010070] 264 - core 164 r3095 baee400 - H.264/MPEG-4 AVC codec - Copyleft 2003-2022 - http://www.videolan.org/x264.html - options: cabac=1 ref=3 deblock=1:0:0 analyse=0x3:0x113 me=hex subme=7 psy=1 psy_rd=1.00:0.00 mixed_ref=1 me_range=16 chroma_me=1 trellis=1 8x8dct=1 cqm=0 deadzone=21,11 fast_pskip=1 chroma_qp_offset=-2 threads=7 lookahead_threads=1 sliced_threads=0 nr=0 decimate=1 interlaced=0 bluray_compat=0 constrained_intra=0 bframes=3 b_pyramid=2 b_adapt=1 b_bias=0 direct=1 weightb=1 open_gop=0 weightp=2 keyint=250 keyint_min=25 scenecut=40 intra_refresh=0 rc_lookahead=40 rc=crf mbtree=1 crf=30.0 qcomp=0.60 qpmin=0 qpmax=69 qpstep=4 ip_ratio=1.40 aq=1:1.00\n",
      "Output #0, mp4, to 'compressed video/Series 1/s01e05.mp4':\n",
      "  Metadata:\n",
      "    major_brand     : mp42\n",
      "    minor_version   : 0\n",
      "    compatible_brands: mp42mp41\n",
      "    encoder         : Lavf59.16.100\n",
      "  Stream #0:0(eng): Video: h264 (avc1 / 0x31637661), yuv420p(tv, smpte170m, progressive), 426x240, q=2-31, 25 fps, 12800 tbn (default)\n",
      "    Metadata:\n",
      "      creation_time   : 2021-02-28T11:44:38.000000Z\n",
      "      handler_name    : ?Mainconcept Video Media Handler\n",
      "      vendor_id       : [0][0][0][0]\n",
      "      encoder         : Lavc59.18.100 libx264\n",
      "    Side data:\n",
      "      cpb: bitrate max/min/avg: 0/0/0 buffer size: 0 vbv_delay: N/A\n",
      "  Stream #0:1(eng): Audio: aac (LC) (mp4a / 0x6134706D), 16000 Hz, mono, fltp, 69 kb/s (default)\n",
      "    Metadata:\n",
      "      creation_time   : 2021-02-28T11:44:38.000000Z\n",
      "      handler_name    : #Mainconcept MP4 Sound Media Handler\n",
      "      vendor_id       : [0][0][0][0]\n",
      "      encoder         : Lavc59.18.100 aac\n",
      "frame=    1 fps=0.0 q=0.0 size=       0kB time=00:00:00.00 bitrate=N/A speed=   0x    \r"
     ]
    },
    {
     "name": "stdout",
     "output_type": "stream",
     "text": [
      "s01e05\n",
      "s01e05.mp4 s01e05 ffmpeg -i 'video/Series 1'/'s01e05.mp4'  -vcodec libx264 -crf 30 -ar 16000 -ac 1 -vf scale=426:240 \"compressed video\"/\"Series 1\"/s01e05.mp4\n"
     ]
    },
    {
     "name": "stderr",
     "output_type": "stream",
     "text": [
      "frame=43709 fps=1252 q=-1.0 Lsize=   37833kB time=00:29:08.41 bitrate= 177.3kbits/s speed=50.1x    \n",
      "video:20574kB audio:16182kB subtitle:0kB other streams:0kB global headers:0kB muxing overhead: 2.927388%\n",
      "[libx264 @ 0x152010070] frame I:745   Avg QP:24.91  size:  6596\n",
      "[libx264 @ 0x152010070] frame P:13312 Avg QP:30.10  size:   834\n",
      "[libx264 @ 0x152010070] frame B:29652 Avg QP:33.01  size:   170\n",
      "[libx264 @ 0x152010070] consecutive B-frames:  6.6%  7.0%  5.4% 81.0%\n",
      "[libx264 @ 0x152010070] mb I  I16..4: 20.1% 54.2% 25.7%\n",
      "[libx264 @ 0x152010070] mb P  I16..4:  1.8%  2.5%  0.3%  P16..4: 27.2%  7.6%  3.6%  0.0%  0.0%    skip:57.0%\n",
      "[libx264 @ 0x152010070] mb B  I16..4:  0.1%  0.1%  0.0%  B16..8: 18.7%  1.2%  0.2%  direct: 0.3%  skip:79.4%  L0:37.2% L1:59.9% BI: 2.9%\n",
      "[libx264 @ 0x152010070] 8x8 transform intra:54.1% inter:74.7%\n",
      "[libx264 @ 0x152010070] coded y,uvDC,uvAC intra: 37.9% 71.2% 41.5% inter: 2.9% 5.7% 1.0%\n",
      "[libx264 @ 0x152010070] i16 v,h,dc,p: 36% 27% 13% 25%\n",
      "[libx264 @ 0x152010070] i8 v,h,dc,ddl,ddr,vr,hd,vl,hu: 22% 16% 34%  4%  4%  5%  5%  5%  5%\n",
      "[libx264 @ 0x152010070] i4 v,h,dc,ddl,ddr,vr,hd,vl,hu: 26% 26% 15%  5%  5%  6%  5%  5%  5%\n",
      "[libx264 @ 0x152010070] i8c dc,h,v,p: 45% 23% 23%  9%\n",
      "[libx264 @ 0x152010070] Weighted P-Frames: Y:1.9% UV:1.2%\n",
      "[libx264 @ 0x152010070] ref P L0: 69.1% 13.4% 12.1%  5.3%  0.1%\n",
      "[libx264 @ 0x152010070] ref B L0: 91.5%  6.6%  2.0%\n",
      "[libx264 @ 0x152010070] ref B L1: 97.3%  2.7%\n",
      "[libx264 @ 0x152010070] kb/s:96.40\n",
      "[aac @ 0x152014f30] Qavg: 4691.111\n",
      "ffmpeg version 5.0.1 Copyright (c) 2000-2022 the FFmpeg developers\n",
      "  built with Apple clang version 13.0.0 (clang-1300.0.29.30)\n",
      "  configuration: --prefix=/opt/homebrew/Cellar/ffmpeg/5.0.1_2 --enable-shared --enable-pthreads --enable-version3 --cc=clang --host-cflags= --host-ldflags= --enable-ffplay --enable-gnutls --enable-gpl --enable-libaom --enable-libbluray --enable-libdav1d --enable-libmp3lame --enable-libopus --enable-librav1e --enable-librist --enable-librubberband --enable-libsnappy --enable-libsrt --enable-libtesseract --enable-libtheora --enable-libvidstab --enable-libvmaf --enable-libvorbis --enable-libvpx --enable-libwebp --enable-libx264 --enable-libx265 --enable-libxml2 --enable-libxvid --enable-lzma --enable-libfontconfig --enable-libfreetype --enable-frei0r --enable-libass --enable-libopencore-amrnb --enable-libopencore-amrwb --enable-libopenjpeg --enable-libspeex --enable-libsoxr --enable-libzmq --enable-libzimg --disable-libjack --disable-indev=jack --enable-videotoolbox --enable-neon\n",
      "  libavutil      57. 17.100 / 57. 17.100\n",
      "  libavcodec     59. 18.100 / 59. 18.100\n",
      "  libavformat    59. 16.100 / 59. 16.100\n",
      "  libavdevice    59.  4.100 / 59.  4.100\n",
      "  libavfilter     8. 24.100 /  8. 24.100\n",
      "  libswscale      6.  4.100 /  6.  4.100\n",
      "  libswresample   4.  3.100 /  4.  3.100\n",
      "  libpostproc    56.  3.100 / 56.  3.100\n",
      "Input #0, mov,mp4,m4a,3gp,3g2,mj2, from 'video/Series 1/s01e02.mp4':\n",
      "  Metadata:\n",
      "    major_brand     : mp42\n",
      "    minor_version   : 0\n",
      "    compatible_brands: mp42mp41\n",
      "    creation_time   : 2021-02-28T11:34:17.000000Z\n",
      "  Duration: 00:29:09.57, start: 0.000000, bitrate: 1127 kb/s\n",
      "  Stream #0:0[0x1](eng): Video: h264 (Main) (avc1 / 0x31637661), yuv420p(tv, smpte170m, progressive), 672x368, 998 kb/s, 25 fps, 25 tbr, 25k tbn (default)\n",
      "    Metadata:\n",
      "      creation_time   : 2021-02-28T11:34:17.000000Z\n",
      "      handler_name    : ?Mainconcept Video Media Handler\n",
      "      vendor_id       : [0][0][0][0]\n",
      "      encoder         : AVC Coding\n",
      "  Stream #0:1[0x2](eng): Audio: aac (LC) (mp4a / 0x6134706D), 48000 Hz, stereo, fltp, 125 kb/s (default)\n",
      "    Metadata:\n",
      "      creation_time   : 2021-02-28T11:34:17.000000Z\n",
      "      handler_name    : #Mainconcept MP4 Sound Media Handler\n",
      "      vendor_id       : [0][0][0][0]\n",
      "Stream mapping:\n",
      "  Stream #0:0 -> #0:0 (h264 (native) -> h264 (libx264))\n",
      "  Stream #0:1 -> #0:1 (aac (native) -> aac (native))\n",
      "Press [q] to stop, [?] for help\n",
      "[libx264 @ 0x150811e20] using cpu capabilities: ARMv8 NEON\n",
      "[libx264 @ 0x150811e20] profile High, level 2.1, 4:2:0, 8-bit\n",
      "[libx264 @ 0x150811e20] 264 - core 164 r3095 baee400 - H.264/MPEG-4 AVC codec - Copyleft 2003-2022 - http://www.videolan.org/x264.html - options: cabac=1 ref=3 deblock=1:0:0 analyse=0x3:0x113 me=hex subme=7 psy=1 psy_rd=1.00:0.00 mixed_ref=1 me_range=16 chroma_me=1 trellis=1 8x8dct=1 cqm=0 deadzone=21,11 fast_pskip=1 chroma_qp_offset=-2 threads=7 lookahead_threads=1 sliced_threads=0 nr=0 decimate=1 interlaced=0 bluray_compat=0 constrained_intra=0 bframes=3 b_pyramid=2 b_adapt=1 b_bias=0 direct=1 weightb=1 open_gop=0 weightp=2 keyint=250 keyint_min=25 scenecut=40 intra_refresh=0 rc_lookahead=40 rc=crf mbtree=1 crf=30.0 qcomp=0.60 qpmin=0 qpmax=69 qpstep=4 ip_ratio=1.40 aq=1:1.00\n",
      "Output #0, mp4, to 'compressed video/Series 1/s01e02.mp4':\n",
      "  Metadata:\n",
      "    major_brand     : mp42\n",
      "    minor_version   : 0\n",
      "    compatible_brands: mp42mp41\n",
      "    encoder         : Lavf59.16.100\n",
      "  Stream #0:0(eng): Video: h264 (avc1 / 0x31637661), yuv420p(tv, smpte170m, progressive), 426x240, q=2-31, 25 fps, 12800 tbn (default)\n",
      "    Metadata:\n",
      "      creation_time   : 2021-02-28T11:34:17.000000Z\n",
      "      handler_name    : ?Mainconcept Video Media Handler\n",
      "      vendor_id       : [0][0][0][0]\n",
      "      encoder         : Lavc59.18.100 libx264\n",
      "    Side data:\n",
      "      cpb: bitrate max/min/avg: 0/0/0 buffer size: 0 vbv_delay: N/A\n",
      "  Stream #0:1(eng): Audio: aac (LC) (mp4a / 0x6134706D), 16000 Hz, mono, fltp, 69 kb/s (default)\n",
      "    Metadata:\n",
      "      creation_time   : 2021-02-28T11:34:17.000000Z\n",
      "      handler_name    : #Mainconcept MP4 Sound Media Handler\n",
      "      vendor_id       : [0][0][0][0]\n",
      "      encoder         : Lavc59.18.100 aac\n",
      "frame=    1 fps=0.0 q=0.0 size=       0kB time=00:00:00.00 bitrate=N/A speed=   0x    \r"
     ]
    },
    {
     "name": "stdout",
     "output_type": "stream",
     "text": [
      "s01e02\n",
      "s01e02.mp4 s01e02 ffmpeg -i 'video/Series 1'/'s01e02.mp4'  -vcodec libx264 -crf 30 -ar 16000 -ac 1 -vf scale=426:240 \"compressed video\"/\"Series 1\"/s01e02.mp4\n"
     ]
    },
    {
     "name": "stderr",
     "output_type": "stream",
     "text": [
      "frame=43738 fps=1223 q=-1.0 Lsize=   39094kB time=00:29:09.56 bitrate= 183.0kbits/s speed=48.9x    \n",
      "video:21817kB audio:16198kB subtitle:0kB other streams:0kB global headers:0kB muxing overhead: 2.837365%\n",
      "[libx264 @ 0x150811e20] frame I:752   Avg QP:26.06  size:  6498\n",
      "[libx264 @ 0x150811e20] frame P:12879 Avg QP:30.79  size:   929\n",
      "[libx264 @ 0x150811e20] frame B:30107 Avg QP:37.78  size:   182\n",
      "[libx264 @ 0x150811e20] consecutive B-frames:  5.8%  5.5%  4.9% 83.7%\n",
      "[libx264 @ 0x150811e20] mb I  I16..4: 29.9% 42.9% 27.2%\n",
      "[libx264 @ 0x150811e20] mb P  I16..4:  2.6%  2.7%  0.5%  P16..4: 27.6%  8.0%  3.6%  0.0%  0.0%    skip:55.0%\n",
      "[libx264 @ 0x150811e20] mb B  I16..4:  0.1%  0.1%  0.0%  B16..8: 18.6%  1.4%  0.2%  direct: 0.4%  skip:79.2%  L0:36.0% L1:61.1% BI: 2.9%\n",
      "[libx264 @ 0x150811e20] 8x8 transform intra:44.9% inter:73.3%\n",
      "[libx264 @ 0x150811e20] coded y,uvDC,uvAC intra: 36.8% 72.7% 41.5% inter: 3.2% 6.3% 1.2%\n",
      "[libx264 @ 0x150811e20] i16 v,h,dc,p: 38% 34%  6% 23%\n",
      "[libx264 @ 0x150811e20] i8 v,h,dc,ddl,ddr,vr,hd,vl,hu: 22% 16% 29%  5%  5%  6%  5%  6%  5%\n",
      "[libx264 @ 0x150811e20] i4 v,h,dc,ddl,ddr,vr,hd,vl,hu: 28% 26% 14%  5%  6%  6%  5%  5%  4%\n",
      "[libx264 @ 0x150811e20] i8c dc,h,v,p: 37% 26% 27% 10%\n",
      "[libx264 @ 0x150811e20] Weighted P-Frames: Y:1.5% UV:1.0%\n",
      "[libx264 @ 0x150811e20] ref P L0: 69.4% 14.0% 11.7%  4.8%  0.1%\n",
      "[libx264 @ 0x150811e20] ref B L0: 91.7%  6.3%  2.0%\n",
      "[libx264 @ 0x150811e20] ref B L1: 97.1%  2.9%\n",
      "[libx264 @ 0x150811e20] kb/s:102.15\n",
      "[aac @ 0x150807840] Qavg: 2303.839\n",
      "ffmpeg version 5.0.1 Copyright (c) 2000-2022 the FFmpeg developers\n",
      "  built with Apple clang version 13.0.0 (clang-1300.0.29.30)\n",
      "  configuration: --prefix=/opt/homebrew/Cellar/ffmpeg/5.0.1_2 --enable-shared --enable-pthreads --enable-version3 --cc=clang --host-cflags= --host-ldflags= --enable-ffplay --enable-gnutls --enable-gpl --enable-libaom --enable-libbluray --enable-libdav1d --enable-libmp3lame --enable-libopus --enable-librav1e --enable-librist --enable-librubberband --enable-libsnappy --enable-libsrt --enable-libtesseract --enable-libtheora --enable-libvidstab --enable-libvmaf --enable-libvorbis --enable-libvpx --enable-libwebp --enable-libx264 --enable-libx265 --enable-libxml2 --enable-libxvid --enable-lzma --enable-libfontconfig --enable-libfreetype --enable-frei0r --enable-libass --enable-libopencore-amrnb --enable-libopencore-amrwb --enable-libopenjpeg --enable-libspeex --enable-libsoxr --enable-libzmq --enable-libzimg --disable-libjack --disable-indev=jack --enable-videotoolbox --enable-neon\n",
      "  libavutil      57. 17.100 / 57. 17.100\n",
      "  libavcodec     59. 18.100 / 59. 18.100\n",
      "  libavformat    59. 16.100 / 59. 16.100\n",
      "  libavdevice    59.  4.100 / 59.  4.100\n",
      "  libavfilter     8. 24.100 /  8. 24.100\n",
      "  libswscale      6.  4.100 /  6.  4.100\n",
      "  libswresample   4.  3.100 /  4.  3.100\n",
      "  libpostproc    56.  3.100 / 56.  3.100\n",
      "Input #0, mov,mp4,m4a,3gp,3g2,mj2, from 'video/Series 1/s01e03.mp4':\n",
      "  Metadata:\n",
      "    major_brand     : mp42\n",
      "    minor_version   : 0\n",
      "    compatible_brands: mp42mp41\n",
      "    creation_time   : 2021-02-28T11:36:51.000000Z\n",
      "  Duration: 00:29:05.73, start: 0.000000, bitrate: 1128 kb/s\n",
      "  Stream #0:0[0x1](eng): Video: h264 (Main) (avc1 / 0x31637661), yuv420p(tv, smpte170m, progressive), 672x368, 999 kb/s, 25 fps, 25 tbr, 25k tbn (default)\n",
      "    Metadata:\n",
      "      creation_time   : 2021-02-28T11:36:51.000000Z\n",
      "      handler_name    : ?Mainconcept Video Media Handler\n",
      "      vendor_id       : [0][0][0][0]\n",
      "      encoder         : AVC Coding\n",
      "  Stream #0:1[0x2](eng): Audio: aac (LC) (mp4a / 0x6134706D), 48000 Hz, stereo, fltp, 125 kb/s (default)\n",
      "    Metadata:\n",
      "      creation_time   : 2021-02-28T11:36:51.000000Z\n",
      "      handler_name    : #Mainconcept MP4 Sound Media Handler\n",
      "      vendor_id       : [0][0][0][0]\n",
      "Stream mapping:\n",
      "  Stream #0:0 -> #0:0 (h264 (native) -> h264 (libx264))\n",
      "  Stream #0:1 -> #0:1 (aac (native) -> aac (native))\n",
      "Press [q] to stop, [?] for help\n",
      "[libx264 @ 0x132809b40] using cpu capabilities: ARMv8 NEON\n",
      "[libx264 @ 0x132809b40] profile High, level 2.1, 4:2:0, 8-bit\n",
      "[libx264 @ 0x132809b40] 264 - core 164 r3095 baee400 - H.264/MPEG-4 AVC codec - Copyleft 2003-2022 - http://www.videolan.org/x264.html - options: cabac=1 ref=3 deblock=1:0:0 analyse=0x3:0x113 me=hex subme=7 psy=1 psy_rd=1.00:0.00 mixed_ref=1 me_range=16 chroma_me=1 trellis=1 8x8dct=1 cqm=0 deadzone=21,11 fast_pskip=1 chroma_qp_offset=-2 threads=7 lookahead_threads=1 sliced_threads=0 nr=0 decimate=1 interlaced=0 bluray_compat=0 constrained_intra=0 bframes=3 b_pyramid=2 b_adapt=1 b_bias=0 direct=1 weightb=1 open_gop=0 weightp=2 keyint=250 keyint_min=25 scenecut=40 intra_refresh=0 rc_lookahead=40 rc=crf mbtree=1 crf=30.0 qcomp=0.60 qpmin=0 qpmax=69 qpstep=4 ip_ratio=1.40 aq=1:1.00\n",
      "Output #0, mp4, to 'compressed video/Series 1/s01e03.mp4':\n",
      "  Metadata:\n",
      "    major_brand     : mp42\n",
      "    minor_version   : 0\n",
      "    compatible_brands: mp42mp41\n",
      "    encoder         : Lavf59.16.100\n",
      "  Stream #0:0(eng): Video: h264 (avc1 / 0x31637661), yuv420p(tv, smpte170m, progressive), 426x240, q=2-31, 25 fps, 12800 tbn (default)\n",
      "    Metadata:\n",
      "      creation_time   : 2021-02-28T11:36:51.000000Z\n",
      "      handler_name    : ?Mainconcept Video Media Handler\n",
      "      vendor_id       : [0][0][0][0]\n",
      "      encoder         : Lavc59.18.100 libx264\n",
      "    Side data:\n",
      "      cpb: bitrate max/min/avg: 0/0/0 buffer size: 0 vbv_delay: N/A\n",
      "  Stream #0:1(eng): Audio: aac (LC) (mp4a / 0x6134706D), 16000 Hz, mono, fltp, 69 kb/s (default)\n",
      "    Metadata:\n",
      "      creation_time   : 2021-02-28T11:36:51.000000Z\n",
      "      handler_name    : #Mainconcept MP4 Sound Media Handler\n",
      "      vendor_id       : [0][0][0][0]\n",
      "      encoder         : Lavc59.18.100 aac\n",
      "frame=    1 fps=0.0 q=0.0 size=       0kB time=00:00:00.00 bitrate=N/A speed=   0x    \r"
     ]
    },
    {
     "name": "stdout",
     "output_type": "stream",
     "text": [
      "s01e03\n",
      "s01e03.mp4 s01e03 ffmpeg -i 'video/Series 1'/'s01e03.mp4'  -vcodec libx264 -crf 30 -ar 16000 -ac 1 -vf scale=426:240 \"compressed video\"/\"Series 1\"/s01e03.mp4\n"
     ]
    },
    {
     "name": "stderr",
     "output_type": "stream",
     "text": [
      "frame=43642 fps=1248 q=-1.0 Lsize=   36804kB time=00:29:05.72 bitrate= 172.7kbits/s speed=49.9x    \n",
      "video:19557kB audio:16170kB subtitle:0kB other streams:0kB global headers:0kB muxing overhead: 3.016134%\n",
      "[libx264 @ 0x132809b40] frame I:725   Avg QP:25.78  size:  6504\n",
      "[libx264 @ 0x132809b40] frame P:12814 Avg QP:30.52  size:   820\n",
      "[libx264 @ 0x132809b40] frame B:30103 Avg QP:37.96  size:   160\n",
      "[libx264 @ 0x132809b40] consecutive B-frames:  5.5%  6.0%  4.7% 83.8%\n",
      "[libx264 @ 0x132809b40] mb I  I16..4: 31.3% 41.7% 27.0%\n",
      "[libx264 @ 0x132809b40] mb P  I16..4:  2.2%  2.2%  0.4%  P16..4: 25.7%  7.1%  3.3%  0.0%  0.0%    skip:59.1%\n",
      "[libx264 @ 0x132809b40] mb B  I16..4:  0.1%  0.1%  0.0%  B16..8: 16.8%  1.1%  0.2%  direct: 0.3%  skip:81.4%  L0:35.8% L1:61.5% BI: 2.8%\n",
      "[libx264 @ 0x132809b40] 8x8 transform intra:43.9% inter:73.4%\n",
      "[libx264 @ 0x132809b40] coded y,uvDC,uvAC intra: 38.1% 73.5% 42.6% inter: 2.8% 5.4% 1.0%\n",
      "[libx264 @ 0x132809b40] i16 v,h,dc,p: 37% 36%  6% 21%\n",
      "[libx264 @ 0x132809b40] i8 v,h,dc,ddl,ddr,vr,hd,vl,hu: 22% 16% 28%  5%  5%  6%  5%  6%  5%\n",
      "[libx264 @ 0x132809b40] i4 v,h,dc,ddl,ddr,vr,hd,vl,hu: 30% 25% 14%  5%  5%  6%  5%  6%  4%\n",
      "[libx264 @ 0x132809b40] i8c dc,h,v,p: 36% 28% 27%  9%\n",
      "[libx264 @ 0x132809b40] Weighted P-Frames: Y:1.4% UV:1.0%\n",
      "[libx264 @ 0x132809b40] ref P L0: 69.5% 13.4% 11.8%  5.2%  0.1%\n",
      "[libx264 @ 0x132809b40] ref B L0: 90.9%  6.9%  2.2%\n",
      "[libx264 @ 0x132809b40] ref B L1: 96.9%  3.1%\n",
      "[libx264 @ 0x132809b40] kb/s:91.77\n",
      "[aac @ 0x13280aec0] Qavg: 3690.228\n"
     ]
    }
   ],
   "source": [
    "path_to_dir = 'video' #path to where all videos are stored\n",
    "\n",
    "try:\n",
    "    os.mkdir('compressed video')\n",
    "except:\n",
    "    pass\n",
    "\n",
    "for idir in os.listdir(path_to_dir):\n",
    "    if idir != '.DS_Store' and not os.path.exists(f'compressed video/{idir}'):\n",
    "        os.mkdir(f'compressed video/{idir}')\n",
    "\n",
    "    ffmpeg = Template(f'ffmpeg -i \\'$idir\\'/\\'$ifile\\'  -vcodec libx264 -crf 30 -ar 16000 -ac 1 -vf scale=426:240 \"compressed video\"/\"{idir}\"/$ofile.mp4')\n",
    "    if re.match(r'Series', idir):\n",
    "        for ifile in os.listdir(path_to_dir + '/' + idir):\n",
    "            ofile = re.search(r's\\d+e\\d+', ifile)[0]\n",
    "            print(ofile)\n",
    "            print(ifile, ofile, ffmpeg.substitute(idir=f\"{path_to_dir}/{idir}\", ifile=ifile, ofile=ofile))\n",
    "            res = os.system(ffmpeg.substitute(idir=f\"{path_to_dir}/{idir}\", ifile=ifile, ofile=ofile))"
   ]
  }
 ],
 "metadata": {
  "kernelspec": {
   "display_name": "wilty",
   "language": "python",
   "name": "python3"
  },
  "language_info": {
   "codemirror_mode": {
    "name": "ipython",
    "version": 3
   },
   "file_extension": ".py",
   "mimetype": "text/x-python",
   "name": "python",
   "nbconvert_exporter": "python",
   "pygments_lexer": "ipython3",
   "version": "3.10.13"
  },
  "orig_nbformat": 4
 },
 "nbformat": 4,
 "nbformat_minor": 2
}
